# xmcd
#
# Track frame offsets:
#	150
#	17743
#	34631
#	49881
#	70083
#	87836
#	103482
#	125078
#	139968
#	155902
#
# Disc length: 2322 seconds
#
# Revision: 1
# Processed by: cddbd v1.5.1PL0 Copyright (c) Steve Scherf et al.
# Submitted via: MusicWizard 7.0.2
#
DISCID=9109100a
DTITLE=Gray, Olivia - Silk and Leather
DYEAR=1900
DGENRE=Country
TTITLE0=Silk and Leather
TTITLE1=No way
TTITLE2=Like a cat
TTITLE3=So close
TTITLE4=I need someone
TTITLE5=Another heartache
TTITLE6=Cold as ice
TTITLE7=Mc Harlow's drive
TTITLE8=Double dealer
TTITLE9=Put your head down tonight
EXTD=
EXTT0=
EXTT1=
EXTT2=
EXTT3=
EXTT4=
EXTT5=
EXTT6=
EXTT7=
EXTT8=
EXTT9=
PLAYORDER=
